<svg width="62" height="57" viewBox="0 0 62 57" fill="none" xmlns="http://www.w3.org/2000/svg">
<g clip-path="url(#clip0_0_130)">
<path d="M42.2486 57.0001H19.7514C19.4489 57.0001 19.1688 56.8529 19.0153 56.6132L17.7731 54.6721C17.6947 54.5546 17.6489 54.4168 17.6477 54.2693C17.6477 54.269 17.6477 54.2687 17.6477 54.2682C17.6477 54.2679 17.6477 54.2675 17.6477 54.267C17.6477 54.2664 17.6477 54.2659 17.6477 54.2653C17.6477 54.2649 17.6477 54.2648 17.6477 54.2645C17.6477 54.2638 17.6477 54.2631 17.6477 54.2623V7.59398C17.6477 6.9373 18.2127 6.27388 18.7543 5.78867L18.142 5.21475C17.9854 5.06793 17.8976 4.87071 17.8976 4.66501V3.29812C17.8976 2.86442 18.2798 2.513 18.7516 2.513H24.3454L31.0244 0.0566713C31.4629 -0.104592 31.9594 0.0916876 32.1346 0.493983C32.3097 0.896592 32.0967 1.35369 31.6589 1.51464L28.9441 2.51284H43.2486C43.7204 2.51284 44.1026 2.86426 44.1026 3.29796V4.66485C44.1026 4.87055 44.0148 5.06778 43.8582 5.21459L43.2459 5.78852C43.7875 6.27372 44.3525 6.93715 44.3525 7.59382V54.2623C44.3525 54.2631 44.3525 54.2638 44.3525 54.2645C44.3525 54.2648 44.3525 54.2649 44.3525 54.2653C44.3525 54.2659 44.3525 54.2664 44.3525 54.267C44.3525 54.2675 44.3525 54.2679 44.3525 54.2682C44.3525 54.2687 44.3525 54.269 44.3525 54.2693C44.3511 54.4168 44.3055 54.5546 44.2271 54.6721L42.9849 56.6132C42.8314 56.853 42.5512 57.0001 42.2486 57.0001ZM20.2397 55.4299H41.7603L42.0052 55.0474H19.9948L20.2397 55.4299ZM19.3555 53.4773H42.6445V7.61439C42.5878 7.42408 42.1617 6.98284 41.6978 6.62153H20.3022C19.8387 6.98253 19.4122 7.42408 19.3555 7.61439V53.4773ZM20.36 5.05129H41.64L42.3946 4.34405V4.08308H24.5295C24.5163 4.08339 24.5032 4.08339 24.4904 4.08308H19.6054V4.34405L20.36 5.05129ZM24.3384 47.1078C24.2181 47.1078 24.0962 47.0844 23.9807 47.0352C23.5898 46.8691 23.3944 46.4615 23.5252 46.084L29.0965 30.0117H24.9519C24.6839 30.0117 24.4315 29.8961 24.2701 29.6993C24.1088 29.5027 24.0572 29.2477 24.1309 29.0108L28.6266 14.545C28.7313 14.208 29.0664 13.9756 29.4478 13.9756H37.0087C37.2905 13.9756 37.5544 14.1034 37.7136 14.3174C37.8727 14.5315 37.9067 14.8037 37.8046 15.0454L33.9657 24.1206H38.8477C39.1578 24.1206 39.4436 24.2751 39.5942 24.5245C39.7449 24.7738 39.7365 25.0786 39.5725 25.3207L25.0639 46.7377C24.9034 46.9743 24.6255 47.1078 24.3384 47.1078ZM26.0841 28.4414H30.2651C30.5377 28.4414 30.7939 28.5611 30.9546 28.7633C31.1153 28.9656 31.1614 29.2262 31.0787 29.4651L27.2288 40.5718L37.3096 25.6907H32.7172C32.4354 25.6907 32.1715 25.5629 32.0123 25.3488C31.8531 25.1348 31.8192 24.8625 31.9213 24.6209L35.7601 15.5457H30.0919L26.0841 28.4414Z" fill="#FF7C32"/>
</g>
<defs>
<clipPath id="clip0_0_130">
<rect width="62" height="57" fill="white"/>
</clipPath>
</defs>
</svg>
